<?xml version="1.0" encoding="UTF-8"?>
<svg width="181px" height="42px" viewBox="0 0 181 42" version="1.1" xmlns="http://www.w3.org/2000/svg" xmlns:xlink="http://www.w3.org/1999/xlink">
    <title>Haverford_Wordmark_White</title>
    <g id="Hi-Fi" stroke="none" stroke-width="1" fill="none" fill-rule="evenodd">
        <g id="Brand-(Email-3)" transform="translate(-312, -2887)">
            <g id="Group-5" transform="translate(1, 2848)">
                <g id="Haverford_Wordmark_White" transform="translate(311, 39)">
                    <g id="Group">
                        <g>
                            <polygon id="Path" points="29.8562035 11.9391813 35.9619783 11.9391813 32.7797313 4.09122807"></polygon>
                            <path d="M42.4040881,19.9929825 C41.9125214,19.6070175 41.4726987,18.9894737 41.1104917,18.1146199 L33.5300172,0 L33.0643225,0 L25.8460549,18.4491228 C25.5614637,19.1695906 25.1733848,19.7099415 24.6818182,20.0701754 C24.1902516,20.4304094 22.8707833,20.6362573 22.1204974,20.6877193 L22.1204974,20.6877193 L21.9393939,20.6877193 L21.6806747,20.6877193 C20.852773,20.6877193 20.2835906,20.4818713 19.9989994,20.0959064 C19.6885363,19.7099415 19.5591767,18.8350877 19.5591767,17.445614 L19.5591767,5.3005848 C19.5591767,3.67953216 19.7144082,2.67602339 20.0507433,2.23859649 C20.3612064,1.82690058 21.0338765,1.59532164 21.9911378,1.59532164 L21.9911378,0.694736842 C21.7841624,0.694736842 21.4995712,0.720467836 21.1373642,0.720467836 C19.7661521,0.771929825 18.8088908,0.797660819 18.2914523,0.797660819 C17.7998856,0.797660819 16.8684963,0.771929825 15.4972842,0.720467836 C15.1092053,0.694736842 14.7987421,0.694736842 14.5917667,0.669005848 L14.5917667,1.56959064 L15.0057176,1.56959064 C15.7301315,1.56959064 16.24757,1.7497076 16.5580332,2.08421053 C16.8684963,2.44444444 17.0237278,3.03625731 17.0237278,3.88538012 L17.0237278,10.2666667 L4.99328188,10.2666667 L4.99328188,5.24912281 C4.99328188,3.65380117 5.14851344,2.6245614 5.48484848,2.2128655 C5.82118353,1.7754386 6.4679817,1.56959064 7.45111492,1.56959064 L7.45111492,0.669005848 C7.27001144,0.669005848 7.01129217,0.694736842 6.64908519,0.694736842 C5.22612922,0.74619883 4.242996,0.771929825 3.69968553,0.771929825 C3.20811893,0.771929825 2.27672956,0.74619883 0.905517439,0.694736842 C0.517438536,0.669005848 0.206975415,0.669005848 0,0.643274854 L0,1.54385965 L0.413950829,1.54385965 C1.13836478,1.54385965 1.68167524,1.72397661 1.99213836,2.08421053 C2.30260149,2.44444444 2.45783305,3.03625731 2.45783305,3.85964912 L2.45783305,17.574269 C2.45783305,18.7064327 2.27672956,19.5040936 1.94039451,19.9415205 C1.60405946,20.3789474 0.983133219,20.5847953 0.0776157804,20.5847953 L0.0258719268,20.5847953 L0.0258719268,21.5368421 C0.776157804,21.5111111 1.47469983,21.4853801 2.09562607,21.4596491 C2.71655232,21.4339181 3.25986278,21.4339181 3.72555746,21.4339181 C4.19125214,21.4339181 4.73456261,21.4339181 5.35548885,21.4596491 C5.97641509,21.4853801 6.67495712,21.4853801 7.45111492,21.5368421 L7.45111492,20.6619883 L7.16652373,20.6619883 C6.33862207,20.6619883 5.74356775,20.4561404 5.45897656,20.0701754 C5.14851344,19.6842105 4.99328188,18.8093567 4.99328188,17.445614 L4.99328188,11.5017544 L16.9978559,11.5017544 L16.9978559,17.651462 C16.9978559,18.8093567 16.8167524,19.5812865 16.4804174,20.0187135 C16.1440823,20.4561404 15.5231561,20.6619883 14.6435106,20.6619883 L14.5658948,20.6619883 L14.5658948,21.5368421 C15.3161807,21.5111111 16.0147227,21.4853801 16.6356489,21.4596491 C17.2565752,21.4339181 17.7998856,21.4339181 18.2655803,21.4339181 C18.731275,21.4339181 19.2487136,21.4339181 19.8696398,21.4596491 C20.4129503,21.4596491 21.1632361,21.4853801 21.8876501,21.4853801 L21.8876501,21.4853801 C21.9911378,21.4853801 22.3016009,21.4853801 22.4050886,21.4853801 C23.1036306,21.4596491 24.1126358,21.4596491 24.5265866,21.4596491 C24.9922813,21.4339181 25.3544883,21.4339181 25.5873356,21.4339181 C26.1047742,21.4339181 26.6739565,21.4339181 27.2690109,21.4596491 C27.8640652,21.4853801 28.5108634,21.4853801 29.1835334,21.5368421 L29.2094054,20.6619883 C28.5108634,20.5847953 28.0451687,20.4818713 27.7864494,20.3274854 C27.5277301,20.1730994 27.4242424,19.8900585 27.4242424,19.5298246 C27.4242424,19.3754386 27.4501144,19.2210526 27.4759863,19.0409357 C27.5018582,18.8608187 27.5536021,18.7064327 27.6053459,18.5263158 L29.3905089,13.277193 L36.5052887,13.277193 L38.6785306,18.5520468 C38.7302744,18.6807018 38.7820183,18.8093567 38.8078902,18.9380117 C38.8337621,19.0666667 38.8596341,19.1953216 38.8596341,19.2725146 C38.8596341,19.7099415 38.6526587,20.0444444 38.2387078,20.3017544 C37.824757,20.5590643 37.2555746,20.6619883 36.5052887,20.6619883 L36.5052887,21.5368421 C37.3073185,21.5111111 38.0576043,21.4853801 38.7820183,21.4596491 C39.5064322,21.4339181 40.1791023,21.4339181 40.8259005,21.4339181 C41.1363636,21.4339181 41.5761864,21.4339181 42.1453688,21.4596491 C42.7145512,21.4853801 43.4389651,21.4853801 44.2927387,21.5368421 L44.2927387,20.6619883 C43.5683248,20.6105263 42.9215266,20.3789474 42.4040881,19.9929825 Z M29.8562035,11.9391813 L32.7538593,4.09122807 L35.9619783,11.9391813 L29.8562035,11.9391813 Z" id="Shape" fill="#FFFFFF" fill-rule="nonzero"></path>
                        </g>
                        <path d="M77.6933962,16.2877193 C77.3829331,17.8573099 76.8396226,18.9122807 76.0893368,19.4526316 C75.3390509,19.9929825 73.7349914,20.2760234 71.3030303,20.2760234 C69.7507147,20.2760234 68.7934534,20.1216374 68.4312464,19.8385965 C68.0690395,19.5555556 67.887936,18.7578947 67.887936,17.497076 L67.887936,11.0643275 L70.4751286,11.0643275 C71.9498285,11.0643275 72.9070898,11.2187135 73.3469125,11.5017544 C73.7867353,11.8105263 73.9937107,12.3508772 74.0195826,13.174269 L74.8992281,13.174269 C74.8992281,13.071345 74.8733562,12.8912281 74.8733562,12.6596491 C74.8474843,11.5532164 74.8216123,10.7812865 74.8216123,10.3438596 C74.8216123,10.0093567 74.8216123,9.34035088 74.8474843,8.38830409 C74.8474843,8.07953216 74.8733562,7.84795322 74.8733562,7.66783626 L73.9937107,7.66783626 C73.9937107,7.71929825 73.9937107,7.77076023 74.0195826,7.84795322 C74.0195826,7.9251462 74.0454545,7.97660819 74.0454545,8.02807018 C74.0454545,8.77426901 73.7608634,9.31461988 73.2175529,9.59766082 C72.6483705,9.88070175 71.5358776,10.0350877 69.8542024,10.0350877 C69.6730989,10.0350877 69.3626358,10.0350877 68.948685,10.0093567 C68.5347341,10.0093567 68.1983991,9.98362573 67.9396798,9.98362573 L67.9396798,1.92982456 L69.7248428,1.92982456 C72.467267,1.92982456 74.226558,2.1871345 74.9768439,2.67602339 C75.7530017,3.16491228 76.1669525,4.11695906 76.2186964,5.53216374 L77.0207261,5.53216374 C77.0207261,4.99181287 76.9948542,4.24561404 76.9431103,3.29356725 C76.8913665,2.34152047 76.8654946,1.64678363 76.8654946,1.23508772 L76.8654946,0.669005848 C75.2614351,0.694736842 73.7867353,0.74619883 72.4155232,0.74619883 C71.044311,0.771929825 69.8542024,0.771929825 68.8193253,0.771929825 C67.7844483,0.771929825 66.7754431,0.771929825 65.8181818,0.74619883 C64.9644082,0.720467836 63.9036592,0.694736842 63.0498856,0.694736842 L63.0498856,0.694736842 C63.0498856,0.694736842 63.0240137,0.694736842 63.0240137,0.694736842 C63.0240137,0.694736842 62.9981418,0.694736842 62.9981418,0.694736842 L62.9981418,0.694736842 C62.4289594,0.694736842 61.4458262,0.720467836 60.9283877,0.720467836 C60.3850772,0.74619883 59.8676387,0.74619883 59.3502001,0.74619883 C58.9362493,0.74619883 58.4705546,0.74619883 57.9272441,0.720467836 C57.3839337,0.694736842 56.7888794,0.694736842 56.1420812,0.643274854 L56.1162093,1.54385965 C56.8147513,1.59532164 57.280446,1.69824561 57.5391652,1.87836257 C57.7978845,2.03274854 57.9272441,2.29005848 57.9272441,2.6245614 C57.9272441,2.77894737 57.9013722,2.95906433 57.8496284,3.19064327 C57.7978845,3.42222222 57.7202687,3.65380117 57.616781,3.9625731 L51.9249571,18.2947368 L45.8709262,3.67953216 C45.7933105,3.4994152 45.7415666,3.31929825 45.6898228,3.19064327 C45.6380789,3.0619883 45.612207,2.93333333 45.612207,2.83040936 C45.612207,2.41871345 45.7933105,2.08421053 46.1813894,1.87836257 C46.5435963,1.67251462 47.1386507,1.56959064 47.9148085,1.54385965 L47.9148085,0.669005848 C47.1903945,0.694736842 46.4918525,0.720467836 45.8450543,0.74619883 C45.1982561,0.771929825 44.5773299,0.771929825 44.0081475,0.771929825 C43.5165809,0.771929825 42.9473985,0.771929825 42.2747284,0.74619883 C41.6279302,0.720467836 40.8776444,0.720467836 40.1014866,0.669005848 L40.1014866,1.56959064 C40.9293882,1.64678363 41.6020583,1.85263158 42.0936249,2.26432749 C42.5851915,2.6502924 43.0508862,3.37076023 43.490709,4.42573099 L50.8642081,21.974269 L51.5368782,21.974269 L59.2467124,4.42573099 C59.7900229,3.19064327 60.2815895,2.39298246 60.7214122,2.08421053 C61.161235,1.7754386 62.0667524,1.59532164 62.8687822,1.56959064 L63.1016295,1.56959064 L63.3603488,1.56959064 C64.0847627,1.56959064 64.6280732,1.7754386 64.9385363,2.13567251 C65.2489994,2.49590643 65.404231,3.0877193 65.404231,3.91111111 L65.404231,17.625731 C65.404231,18.7578947 65.2231275,19.5555556 64.8867925,19.9929825 C64.5504574,20.4304094 63.9295312,20.6362573 63.0240137,20.6362573 L62.8946541,20.6362573 L62.8946541,21.5111111 C63.9554031,21.4853801 65.0161521,21.4339181 66.102773,21.4339181 C67.1893939,21.4081871 68.3277587,21.4081871 69.4919954,21.4081871 C70.3975129,21.4081871 71.5617496,21.4081871 72.9588336,21.4339181 C74.3559177,21.4596491 76.011721,21.4596491 77.9262436,21.5111111 C77.9521155,20.9450292 78.0556032,20.0959064 78.1849628,18.9380117 C78.3401944,17.780117 78.4178102,16.9052632 78.4436821,16.2877193 L77.6933962,16.2877193 L77.6933962,16.2877193 Z" id="Path" fill="#FFFFFF" fill-rule="nonzero"></path>
                        <g transform="translate(81.8588, 0.6175)">
                            <path d="M11.8493425,5.94385965 C11.8493425,4.37426901 11.4095197,3.16491228 10.5557461,2.31578947 C9.70197256,1.46666667 8.46012007,1.02923977 6.88193253,1.02923977 C6.64908519,1.02923977 6.364494,1.02923977 6.05403087,1.05497076 C5.74356775,1.08070175 5.38136078,1.08070175 4.99328188,1.13216374 L4.96740995,10.0093567 C5.35548885,10.1122807 5.71769583,10.1637427 6.05403087,10.2152047 C6.39036592,10.2666667 6.7525729,10.2923977 7.11477987,10.2923977 C8.66709548,10.2923977 9.83133219,9.93216374 10.6333619,9.18596491 C11.4353917,8.43976608 11.8493425,7.35906433 11.8493425,5.94385965 Z" id="Path"></path>
                            <path d="M33.0901944,2.29005848 C33.0643225,1.49239766 33.0643225,0.771929825 33.0643225,0.102923977 C31.4861349,0.128654971 30.0114351,0.180116959 28.6143511,0.180116959 C27.2431389,0.205847953 26.0271584,0.205847953 25.0181532,0.205847953 C23.9832762,0.205847953 22.974271,0.205847953 22.0170097,0.180116959 C21.0597484,0.154385965 20.0766152,0.128654971 19.1452258,0.102923977 L19.1452258,1.00350877 L19.5591767,1.00350877 C20.2835906,1.00350877 20.8269011,1.18362573 21.1373642,1.54385965 C21.4478273,1.90409357 21.6030589,2.49590643 21.6030589,3.31929825 L21.6030589,17.0339181 C21.6030589,18.1660819 21.4995712,19.0152047 21.0856204,19.4011696 C20.2318468,20.1988304 18.8865066,20.1730994 18.8865066,20.1730994 L18.8865066,20.1730994 C17.6963979,20.1730994 16.4545455,20.0187135 15.8077473,19.5555556 C15.1350772,19.0923977 14.3330475,18.0116959 13.3757862,16.2619883 L10.1935392,10.6783626 C11.6941109,10.3438596 12.8066038,9.75204678 13.5310177,8.90292398 C14.2554317,8.05380117 14.6176387,6.92163743 14.6176387,5.48070175 C14.6176387,3.78245614 14.0225843,2.41871345 12.8583476,1.46666667 C11.668239,0.488888889 10.0383076,0 7.94268153,0 C7.5287307,0 6.77844483,0.0257309942 5.71769583,0.102923977 C4.65694683,0.180116959 3.80317324,0.205847953 3.182247,0.205847953 C2.7941681,0.205847953 2.32847341,0.205847953 1.75929102,0.180116959 C1.21598056,0.154385965 0.620926244,0.128654971 0,0.102923977 L0,1.00350877 L0.413950829,1.00350877 C1.13836478,1.00350877 1.68167524,1.18362573 1.99213836,1.54385965 C2.30260149,1.90409357 2.45783305,2.49590643 2.45783305,3.31929825 L2.45783305,17.0339181 C2.45783305,18.1660819 2.27672956,18.9637427 1.94039451,19.4011696 C1.60405946,19.8385965 0.983133219,20.0444444 0.0776157804,20.0444444 L0,20.0444444 L0.0258719268,20.9192982 C0.776157804,20.8935673 1.47469983,20.8678363 2.09562607,20.8421053 C2.71655232,20.8163743 3.25986278,20.8163743 3.72555746,20.8163743 C4.19125214,20.8163743 4.73456261,20.8163743 5.35548885,20.8421053 C5.97641509,20.8678363 6.67495712,20.8678363 7.45111492,20.9192982 L7.45111492,20.0444444 L7.16652373,20.0444444 C6.33862207,20.0444444 5.74356775,19.8385965 5.45897656,19.4526316 C5.14851344,19.0666667 4.99328188,18.1918129 4.99328188,16.8280702 L4.99328188,11.3473684 C5.14851344,11.3473684 5.35548885,11.3730994 5.61420812,11.3988304 C6.67495712,11.4760234 7.27001144,11.5274854 7.39937107,11.6046784 C7.63221841,11.7076023 7.99442539,12.1707602 8.485992,13.019883 C8.56360778,13.148538 8.61535163,13.251462 8.66709548,13.328655 L11.4095197,17.8315789 C12.2115495,19.1438596 12.9618353,19.8900585 13.7379931,20.3532164 C14.488279,20.8163743 15.4972842,21.0479532 16.7132647,21.0479532 C16.971984,21.0479532 17.6963979,21.0479532 17.9551172,21.0222222 C18.1362207,21.0222222 18.6019154,20.9964912 18.9641224,20.9707602 C19.7144082,20.9450292 20.6199257,20.8935673 21.2408519,20.8935673 C21.8617782,20.8678363 22.4050886,20.8678363 22.8707833,20.8678363 C23.336478,20.8678363 23.8797885,20.8678363 24.5007147,20.8935673 C25.1216409,20.9192982 25.820183,20.9192982 26.5963408,20.9707602 L26.5963408,20.0959064 L26.3117496,20.0959064 C25.4838479,20.0959064 24.8887936,19.8900585 24.6042024,19.5040936 C24.2937393,19.1181287 24.1385077,18.2432749 24.1385077,16.8795322 L24.1385077,10.5239766 L26.880932,10.5239766 C28.3556318,10.5239766 29.2870212,10.6783626 29.7268439,10.9871345 C30.1666667,11.2959064 30.399514,11.9134503 30.4253859,12.8397661 L31.2532876,12.8397661 C31.2532876,12.7368421 31.2532876,12.5824561 31.2274157,12.3766082 C31.2015437,11.2187135 31.1756718,10.4210526 31.1756718,9.98362573 C31.1756718,9.54619883 31.2015437,8.77426901 31.2274157,7.66783626 C31.2274157,7.43625731 31.2532876,7.25614035 31.2532876,7.12748538 L30.3736421,7.12748538 L30.3736421,7.4619883 C30.3736421,8.23391813 30.0890509,8.77426901 29.5457404,9.05730994 C29.00243,9.34035088 27.8640652,9.49473684 26.1047742,9.49473684 C25.9236707,9.49473684 25.5873356,9.49473684 25.1475129,9.46900585 C24.7076901,9.46900585 24.3713551,9.44327485 24.0867639,9.44327485 L24.0867639,1.36374269 L25.8719268,1.36374269 C28.6143511,1.36374269 30.3736421,1.62105263 31.123928,2.10994152 C31.9000858,2.59883041 32.3140366,3.55087719 32.3657804,4.96608187 L33.1678102,4.96608187 C33.1419383,3.98830409 33.0901944,3.0877193 33.0901944,2.29005848 Z M7.11477987,10.2923977 C6.7525729,10.2923977 6.41623785,10.2666667 6.05403087,10.2152047 C5.71769583,10.1637427 5.35548885,10.1122807 4.96740995,10.0093567 L4.99328188,1.13216374 C5.38136078,1.10643275 5.71769583,1.08070175 6.05403087,1.05497076 C6.364494,1.02923977 6.64908519,1.02923977 6.88193253,1.02923977 C8.485992,1.02923977 9.70197256,1.46666667 10.5557461,2.31578947 C11.4095197,3.16491228 11.8493425,4.37426901 11.8493425,5.94385965 C11.8493425,7.35906433 11.4353917,8.43976608 10.6333619,9.16023392 C9.83133219,9.90643275 8.64122356,10.2923977 7.11477987,10.2923977 Z" id="Shape" fill="#FFFFFF" fill-rule="nonzero"></path>
                        </g>
                        <path d="M127.83319,22 C124.676815,22 122.037879,20.9707602 119.942253,18.9122807 C117.846627,16.8538012 116.785878,14.2807018 116.785878,11.2187135 C116.785878,8.15672515 117.794883,5.55789474 119.838765,3.44795322 C121.882647,1.3380117 124.392224,0.283040936 127.367496,0.283040936 C130.575615,0.283040936 133.240423,1.3122807 135.361921,3.37076023 C137.483419,5.42923977 138.518296,8.02807018 138.518296,11.1672515 C138.518296,14.2549708 137.509291,16.8538012 135.465409,18.9122807 C133.47327,20.9707602 130.91195,22 127.83319,22 Z M119.735277,10.6011696 C119.735277,13.5859649 120.537307,16.0561404 122.141366,18.0116959 C123.745426,19.9672515 125.763436,20.9450292 128.143654,20.9450292 C130.316895,20.9450292 132.102058,20.0959064 133.550886,18.4233918 C134.999714,16.7508772 135.698256,14.6409357 135.698256,12.0678363 C135.698256,8.98011696 134.896226,6.40701754 133.318039,4.42573099 C131.739851,2.41871345 129.695969,1.41520468 127.238136,1.41520468 C124.909663,1.41520468 123.072756,2.23859649 121.727416,3.85964912 C120.407947,5.48070175 119.735277,7.71929825 119.735277,10.6011696 Z" id="Shape" fill="#FFFFFF" fill-rule="nonzero"></path>
                        <g transform="translate(140.5104, 0.6175)">
                            <path d="M11.8493425,5.94385965 C11.8493425,4.37426901 11.4095197,3.16491228 10.5557461,2.31578947 C9.70197256,1.46666667 8.46012007,1.02923977 6.88193253,1.02923977 C6.64908519,1.02923977 6.364494,1.02923977 6.05403087,1.05497076 C5.74356775,1.08070175 5.38136078,1.08070175 4.99328188,1.13216374 L4.96740995,10.0093567 C5.35548885,10.1122807 5.71769583,10.1637427 6.05403087,10.2152047 C6.39036592,10.2666667 6.7525729,10.2923977 7.11477987,10.2923977 C8.66709548,10.2923977 9.83133219,9.93216374 10.6333619,9.18596491 C11.4612636,8.43976608 11.8493425,7.35906433 11.8493425,5.94385965 Z" id="Path"></path>
                            <path d="M27.8899371,1.20935673 C27.3724986,1.20935673 26.8291881,1.23508772 26.2082619,1.26081871 C25.6132075,1.28654971 24.9146655,1.3380117 24.1385077,1.41520468 L24.1385077,13.019883 L24.1385077,16.6479532 C24.1643796,17.9345029 24.397227,18.7836257 24.9146655,19.1953216 C25.4321041,19.6327485 26.4152373,19.8643275 27.915809,19.8643275 C31.0204403,19.8643275 33.4524014,19.0923977 35.2116924,17.574269 C36.9709834,16.0561404 37.8506289,13.9204678 37.8506289,11.2444444 C37.8506289,8.23391813 36.9451115,5.81520468 35.1340766,3.9625731 C33.2971698,2.10994152 30.8910806,1.20935673 27.8899371,1.20935673 Z" id="Path"></path>
                            <path d="M39.5323042,5.91812865 C38.9113779,4.55438596 38.0576043,3.42222222 36.9709834,2.54736842 C35.9102344,1.67251462 34.6683819,1.05497076 33.2971698,0.643274854 C31.9259577,0.231578947 30.2701544,0.0514619883 28.3556318,0.0514619883 C27.7088336,0.0514619883 26.7774443,0.0771929825 25.5614637,0.128654971 C24.7853059,0.154385965 24.1643796,0.180116959 23.6469411,0.205847953 C23.1036306,0.205847953 22.5603202,0.205847953 22.0170097,0.180116959 C21.0597484,0.154385965 20.0766152,0.128654971 19.1452258,0.102923977 L19.1452258,0.102923977 C19.1452258,0.102923977 19.1452258,0.102923977 19.1452258,0.102923977 L19.1452258,1.00350877 L19.5591767,1.00350877 C20.2835906,1.00350877 20.8269011,1.18362573 21.1373642,1.54385965 C21.4478273,1.90409357 21.6030589,2.49590643 21.6030589,3.31929825 L21.6030589,16.8023392 C21.6030589,16.9052632 21.6030589,16.9824561 21.6030589,17.0853801 C21.6030589,18.2175439 21.4995712,19.0409357 21.0856204,19.4011696 C20.2318468,20.1988304 18.8865066,20.1730994 18.8865066,20.1730994 L18.8865066,20.1730994 C17.6963979,20.1730994 16.4545455,20.0187135 15.8077473,19.5555556 C15.1350772,19.0923977 14.3330475,18.0116959 13.3757862,16.2619883 L10.1935392,10.6783626 C11.6941109,10.3438596 12.8066038,9.75204678 13.5310177,8.90292398 C14.2554317,8.05380117 14.6176387,6.92163743 14.6176387,5.48070175 C14.6176387,3.78245614 14.0225843,2.41871345 12.8583476,1.46666667 C11.668239,0.488888889 10.0383076,0 7.94268153,0 C7.5287307,0 6.77844483,0.0257309942 5.71769583,0.102923977 C4.65694683,0.180116959 3.80317324,0.205847953 3.182247,0.205847953 C2.7941681,0.205847953 2.32847341,0.205847953 1.75929102,0.180116959 C1.21598056,0.154385965 0.620926244,0.128654971 0,0.102923977 L0,1.00350877 L0.413950829,1.00350877 C1.13836478,1.00350877 1.68167524,1.18362573 1.99213836,1.54385965 C2.30260149,1.90409357 2.45783305,2.49590643 2.45783305,3.31929825 L2.45783305,17.0339181 C2.45783305,18.1660819 2.27672956,18.9637427 1.94039451,19.4011696 C1.60405946,19.8385965 0.983133219,20.0444444 0.0776157804,20.0444444 L0,20.0444444 L0.0258719268,20.9192982 C0.776157804,20.8935673 1.47469983,20.8678363 2.09562607,20.8421053 C2.71655232,20.8163743 3.25986278,20.8163743 3.72555746,20.8163743 C4.19125214,20.8163743 4.73456261,20.8163743 5.35548885,20.8421053 C5.97641509,20.8678363 6.67495712,20.8678363 7.45111492,20.9192982 L7.45111492,20.0444444 L7.16652373,20.0444444 C6.33862207,20.0444444 5.74356775,19.8385965 5.45897656,19.4526316 C5.14851344,19.0666667 4.99328188,18.1918129 4.99328188,16.8280702 L4.99328188,11.3473684 C5.14851344,11.3473684 5.35548885,11.3730994 5.61420812,11.3988304 C6.67495712,11.4760234 7.27001144,11.5274854 7.39937107,11.6046784 C7.63221841,11.7076023 7.99442539,12.1707602 8.485992,13.019883 C8.56360778,13.148538 8.61535163,13.251462 8.66709548,13.328655 L11.4095197,17.8315789 C12.2115495,19.1438596 12.9618353,19.8900585 13.7379931,20.3532164 C14.488279,20.8163743 15.4972842,21.0479532 16.7132647,21.0479532 C16.971984,21.0479532 17.6963979,21.0479532 17.9551172,21.0222222 C18.1362207,21.0222222 18.6019154,20.9964912 18.9641224,20.9707602 C19.4815609,20.9450292 20.1024871,20.9192982 20.6199257,20.9192982 C20.7751572,20.9192982 20.9303888,20.9192982 21.0856204,20.9192982 C21.7324185,20.8935673 22.3274728,20.8935673 22.8707833,20.8935673 C23.4140938,20.8935673 24.2678674,20.9192982 25.457976,20.9707602 C26.6480846,21.0222222 27.5536021,21.0479532 28.1745283,21.0479532 C32.0811893,21.0479532 35.1082047,20.0959064 37.2555746,18.2175439 C39.4029445,16.3391813 40.4895655,13.6888889 40.4895655,10.2666667 C40.4636935,8.72280702 40.1532304,7.28187135 39.5323042,5.91812865 Z M7.11477987,10.2923977 C6.7525729,10.2923977 6.41623785,10.2666667 6.05403087,10.2152047 C5.71769583,10.1637427 5.35548885,10.1122807 4.96740995,10.0093567 L4.99328188,1.13216374 C5.38136078,1.10643275 5.71769583,1.08070175 6.05403087,1.05497076 C6.364494,1.02923977 6.64908519,1.02923977 6.88193253,1.02923977 C8.485992,1.02923977 9.70197256,1.46666667 10.5557461,2.31578947 C11.4095197,3.16491228 11.8493425,4.37426901 11.8493425,5.94385965 C11.8493425,7.35906433 11.4353917,8.43976608 10.6333619,9.16023392 C9.83133219,9.90643275 8.66709548,10.2923977 7.11477987,10.2923977 Z M35.1858205,17.574269 C33.4265294,19.1181287 30.9945683,19.8643275 27.8899371,19.8643275 C26.4152373,19.8643275 25.4062321,19.6327485 24.8887936,19.1953216 C24.397227,18.7578947 24.1385077,17.9087719 24.1126358,16.6479532 L24.1126358,13.019883 L24.1126358,1.41520468 C24.8887936,1.3380117 25.5873356,1.28654971 26.1823899,1.26081871 C26.7774443,1.23508772 27.3466266,1.20935673 27.8640652,1.20935673 C30.8652087,1.20935673 33.2712979,2.13567251 35.0823328,3.9625731 C36.8933676,5.78947368 37.7988851,8.20818713 37.7988851,11.2444444 C37.824757,13.9204678 36.9451115,16.0304094 35.1858205,17.574269 Z" id="Shape" fill="#FFFFFF" fill-rule="nonzero"></path>
                        </g>
                    </g>
                    <g id="Group" transform="translate(47, 29)" fill="#FFFFFF" fill-rule="nonzero">
                        <path d="M11.6181327,3.46153846 L11.359952,3.46153846 C10.9210447,2.56410256 10.301411,1.8974359 9.55268688,1.46153846 C8.80396277,1.02564103 7.84869409,0.794871795 6.73851696,0.794871795 C5.29270489,0.794871795 4.07925548,1.30769231 3.14980486,2.30769231 C2.22035425,3.30769231 1.75562894,4.64102564 1.75562894,6.23076923 C1.75562894,8.02564103 2.22035425,9.46153846 3.14980486,10.5897436 C4.07925548,11.7179487 5.29270489,12.2564103 6.79015311,12.2564103 C7.77123987,12.2564103 8.67487241,12.025641 9.44941459,11.5897436 C10.2497748,11.1538462 10.9984989,10.4358974 11.6955869,9.48717949 L11.6955869,10.8717949 C11.1275893,11.5384615 10.3788652,12.0512821 9.50105074,12.4102564 C8.62323627,12.7948718 7.66796758,12.974359 6.66106274,12.974359 C4.69888922,12.974359 3.09816872,12.3846154 1.85890123,11.2051282 C0.619633744,10.025641 0,8.51282051 0,6.66666667 C0,4.76923077 0.645451816,3.20512821 1.91053738,1.92307692 C3.17562294,0.666666667 4.77634344,0.0256410256 6.68688082,0.0256410256 C7.59051336,0.0256410256 8.7781447,0.256410256 10.2497748,0.717948718 C10.8694086,0.897435897 11.3083158,1.02564103 11.5923146,1.1025641 C11.5923146,1.43589744 11.5664965,1.69230769 11.5664965,1.84615385 C11.5664965,2 11.5664965,2.15384615 11.5664965,2.30769231 C11.5664965,2.41025641 11.5664965,2.61538462 11.5923146,2.94871795 C11.6181327,3.20512821 11.6181327,3.33333333 11.6181327,3.46153846 Z" id="Path"></path>
                        <path d="M20.3446412,13 C18.4599219,13 16.8850195,12.3846154 15.645752,11.1538462 C14.3806665,9.92307692 13.7610327,8.38461538 13.7610327,6.56410256 C13.7610327,4.74358974 14.3806665,3.17948718 15.5941159,1.94871795 C16.8075653,0.692307692 18.3050135,0.0769230769 20.0864605,0.0769230769 C21.9969979,0.0769230769 23.5977184,0.692307692 24.862804,1.92307692 C26.1278895,3.15384615 26.7475233,4.69230769 26.7475233,6.56410256 C26.7475233,8.41025641 26.1537076,9.94871795 24.9402582,11.1794872 C23.7009907,12.3846154 22.1777244,13 20.3446412,13 Z M15.4908436,6.17948718 C15.4908436,7.94871795 15.981387,9.43589744 16.9366557,10.5897436 C17.8919243,11.7435897 19.1053738,12.3333333 20.5253678,12.3333333 C21.8162714,12.3333333 22.9006304,11.8461538 23.7526268,10.8461538 C24.6046232,9.84615385 25.0435305,8.58974359 25.0435305,7.05128205 C25.0435305,5.20512821 24.5788052,3.69230769 23.6235365,2.48717949 C22.6682678,1.28205128 21.4806364,0.692307692 20.0090063,0.692307692 C18.6148304,0.692307692 17.5304713,1.17948718 16.7301111,2.15384615 C15.8781147,3.12820513 15.4908436,4.48717949 15.4908436,6.17948718 Z" id="Shape"></path>
                        <path d="M28.6580606,0.307692308 C28.7613329,0.307692308 28.9162414,0.307692308 29.0969679,0.333333333 C29.9489643,0.358974359 30.5427799,0.384615385 30.8784149,0.384615385 C31.1882318,0.384615385 31.7562294,0.358974359 32.6082258,0.333333333 C32.8405884,0.333333333 33.0213149,0.307692308 33.1504053,0.307692308 L33.1504053,0.846153846 C32.6340438,0.846153846 32.2467727,0.948717949 32.0144101,1.17948718 C31.7820474,1.38461538 31.6787751,1.74358974 31.6787751,2.23076923 L31.6787751,10 C31.6787751,10.7948718 31.8595017,11.3076923 32.2209547,11.5897436 C32.5824077,11.8717949 33.3311318,12 34.4929451,12 C35.6289403,12 36.3776644,11.8205128 36.8165716,11.4871795 C37.2296608,11.1538462 37.4878415,10.5128205 37.6169319,9.58974359 L38.1074752,9.58974359 L38.1074752,9.64102564 C38.0816572,10.974359 38.0558391,12 38.030021,12.7179487 C36.9198439,12.7179487 35.6805764,12.6923077 34.2864005,12.6666667 C32.8922246,12.6410256 32.0402282,12.6410256 31.7304113,12.6410256 C31.3431402,12.6410256 30.6202342,12.6666667 29.5616932,12.6923077 C29.2002402,12.6923077 28.9162414,12.7179487 28.7096968,12.7179487 L28.7096968,12.2051282 L28.7613329,12.2051282 C29.3035125,12.2051282 29.6649655,12.0769231 29.845692,11.8205128 C30.0522366,11.5641026 30.1555089,11.1025641 30.1555089,10.4102564 L30.1555089,2.23076923 C30.1555089,1.71794872 30.0522366,1.35897436 29.8715101,1.15384615 C29.6907835,0.948717949 29.3809667,0.846153846 28.9420594,0.846153846 L28.6838787,0.846153846 L28.6838787,0.307692308 L28.6580606,0.307692308 Z" id="Path"></path>
                        <path d="M39.5016512,0.307692308 C39.6049234,0.307692308 39.7598319,0.307692308 39.9405584,0.333333333 C40.7925548,0.358974359 41.3863705,0.384615385 41.7220054,0.384615385 C42.0318223,0.384615385 42.5998199,0.358974359 43.4518163,0.333333333 C43.6841789,0.333333333 43.8649054,0.307692308 43.9939958,0.307692308 L43.9939958,0.846153846 C43.4776343,0.846153846 43.0903633,0.948717949 42.8580006,1.17948718 C42.6256379,1.38461538 42.5223657,1.74358974 42.5223657,2.23076923 L42.5223657,10 C42.5223657,10.7948718 42.7030922,11.3076923 43.0645452,11.5897436 C43.4259982,11.8717949 44.1747223,12 45.3365356,12 C46.4725308,12 47.2212549,11.8205128 47.6601621,11.4871795 C48.0732513,11.1538462 48.331432,10.5128205 48.4605224,9.58974359 L48.9510657,9.58974359 L48.9510657,9.64102564 C48.9252477,10.974359 48.8994296,12 48.8736115,12.7179487 C47.7634344,12.7179487 46.5241669,12.6923077 45.129991,12.6666667 C43.7358151,12.6410256 42.8838187,12.6410256 42.5740018,12.6410256 C42.1867307,12.6410256 41.4638247,12.6666667 40.4052837,12.6923077 C40.0438307,12.6923077 39.7598319,12.7179487 39.5532873,12.7179487 L39.5532873,12.2051282 L39.6049234,12.2051282 C40.147103,12.2051282 40.508556,12.0769231 40.6892825,11.8205128 C40.8958271,11.5641026 40.9990994,11.1025641 40.9990994,10.4102564 L40.9990994,2.23076923 C40.9990994,1.71794872 40.8958271,1.35897436 40.7151006,1.15384615 C40.5343741,0.948717949 40.2245572,0.846153846 39.78565,0.846153846 L39.5274692,0.846153846 L39.5274692,0.307692308 L39.5016512,0.307692308 Z" id="Path"></path>
                        <path d="M50.2677875,12.7179487 L50.2677875,12.2051282 L50.3194236,12.2051282 C50.8616031,12.2051282 51.2230561,12.0769231 51.4296007,11.8205128 C51.6361453,11.5641026 51.7394176,11.1025641 51.7394176,10.4102564 L51.7394176,2.23076923 C51.7394176,1.74358974 51.6361453,1.38461538 51.4554188,1.17948718 C51.2746923,0.974358974 50.9648754,0.871794872 50.5259682,0.871794872 L50.2677875,0.871794872 L50.2677875,0.333333333 C50.835785,0.358974359 51.4037826,0.384615385 51.9717802,0.384615385 C52.5397778,0.384615385 53.1594116,0.41025641 53.7532273,0.41025641 C54.372861,0.41025641 55.069949,0.41025641 55.8961273,0.384615385 C56.7223056,0.384615385 57.6001201,0.358974359 58.5553888,0.333333333 L58.5553888,0.666666667 C58.5553888,0.923076923 58.5812068,1.33333333 58.6070249,1.8974359 C58.632843,2.46153846 58.6586611,2.92307692 58.6586611,3.23076923 L58.1939358,3.23076923 C58.1681177,2.38461538 57.909937,1.82051282 57.4452116,1.53846154 C56.9804863,1.23076923 55.9477634,1.1025641 54.2954068,1.1025641 L53.2368658,1.1025641 L53.2368658,5.8974359 C53.3917742,5.8974359 53.5983188,5.8974359 53.8306815,5.8974359 C54.0888622,5.8974359 54.2695887,5.8974359 54.372861,5.8974359 C55.3797658,5.8974359 56.0510357,5.82051282 56.3866707,5.64102564 C56.7223056,5.46153846 56.877214,5.15384615 56.877214,4.71794872 C56.877214,4.69230769 56.877214,4.66666667 56.877214,4.61538462 C56.877214,4.56410256 56.877214,4.53846154 56.877214,4.51282051 L57.3935755,4.51282051 C57.3935755,4.61538462 57.3935755,4.76923077 57.3677574,4.94871795 C57.3677574,5.51282051 57.3419394,5.8974359 57.3419394,6.1025641 C57.3419394,6.35897436 57.3419394,6.82051282 57.3677574,7.48717949 C57.3677574,7.61538462 57.3677574,7.71794872 57.3677574,7.79487179 L56.851396,7.79487179 C56.851396,7.30769231 56.7223056,6.97435897 56.4641249,6.79487179 C56.2059442,6.61538462 55.6379466,6.53846154 54.7601321,6.53846154 L53.2110477,6.53846154 L53.2110477,10.3589744 C53.2110477,11.1025641 53.31432,11.5897436 53.5466827,11.7435897 C53.7532273,11.9230769 54.3470429,12 55.2506755,12 C56.6964875,12 57.6517562,11.8461538 58.1164815,11.5128205 C58.5812068,11.1794872 58.8910237,10.5641026 59.0717502,9.61538462 L59.5364755,9.61538462 C59.5106575,9.97435897 59.4590213,10.5128205 59.3815671,11.1794872 C59.3041129,11.8717949 59.2266587,12.3846154 59.2266587,12.7179487 C58.0906635,12.6923077 57.1095767,12.6923077 56.2575803,12.6666667 C55.4055839,12.6666667 54.734314,12.6666667 54.1921345,12.6666667 C53.4950465,12.6666667 52.8237766,12.6666667 52.1783248,12.6923077 C51.532873,12.6666667 50.8874212,12.6923077 50.2677875,12.7179487 Z" id="Path"></path>
                        <path d="M73.2458721,1.05128205 C73.2458721,1.28205128 73.2458721,1.51282051 73.220054,1.71794872 C73.220054,1.92307692 73.220054,2.15384615 73.220054,2.41025641 C73.220054,2.58974359 73.220054,2.74358974 73.220054,2.8974359 C73.220054,3.05128205 73.220054,3.20512821 73.2458721,3.35897436 L72.7811468,3.35897436 C72.4713299,2.46153846 71.9549685,1.82051282 71.2836986,1.38461538 C70.6124287,0.974358974 69.6829781,0.743589744 68.5469829,0.743589744 C66.9720805,0.743589744 65.7069949,1.23076923 64.7259081,2.23076923 C63.7706394,3.20512821 63.2800961,4.51282051 63.2800961,6.12820513 C63.2800961,7.84615385 63.8222756,9.30769231 64.9066346,10.4615385 C65.9909937,11.6153846 67.3593515,12.2051282 68.9858901,12.2051282 C69.4764335,12.2051282 69.9411588,12.1538462 70.4058841,12.025641 C70.8706094,11.9230769 71.3353347,11.7435897 71.80006,11.4871795 L71.80006,8.8974359 C71.80006,8.38461538 71.7226058,8.02564103 71.5418793,7.87179487 C71.3869709,7.71794872 71.077154,7.61538462 70.6124287,7.61538462 L70.5349745,7.61538462 L70.5349745,7.1025641 C70.7673371,7.1025641 71.1029721,7.12820513 71.5418793,7.12820513 C71.9807866,7.15384615 72.3164215,7.15384615 72.5229661,7.15384615 C72.7295107,7.15384615 73.0651456,7.15384615 73.5298709,7.12820513 C73.9945962,7.1025641 74.3302312,7.1025641 74.5625938,7.1025641 L74.5625938,7.61538462 L74.4593215,7.61538462 C74.0204143,7.61538462 73.7105974,7.69230769 73.555689,7.82051282 C73.4007805,7.97435897 73.3233263,8.23076923 73.3233263,8.61538462 L73.3233263,11.8974359 C72.4713299,12.2307692 71.6193335,12.4871795 70.7931552,12.6666667 C69.9669769,12.8461538 69.1924347,12.9230769 68.4437106,12.9230769 C66.4299009,12.9230769 64.7775443,12.3076923 63.5124587,11.0512821 C62.2473732,9.79487179 61.6019213,8.20512821 61.6019213,6.25641026 C61.6019213,4.43589744 62.2473732,2.94871795 63.5124587,1.76923077 C64.7775443,0.58974359 66.4299009,0 68.4437106,0 C69.5022516,0 70.9480636,0.282051282 72.7553287,0.820512821 C72.9618733,0.948717949 73.1425998,1 73.2458721,1.05128205 Z" id="Path"></path>
                        <path d="M76.7313119,12.7179487 L76.7313119,12.2051282 L76.7829481,12.2051282 C77.3251276,12.2051282 77.6865806,12.0769231 77.8931252,11.8205128 C78.0996698,11.5641026 78.2029421,11.1025641 78.2029421,10.4102564 L78.2029421,2.23076923 C78.2029421,1.74358974 78.0996698,1.38461538 77.9189433,1.17948718 C77.7382168,0.974358974 77.4283999,0.871794872 76.9894926,0.871794872 L76.7313119,0.871794872 L76.7313119,0.333333333 C77.2993095,0.358974359 77.8673071,0.384615385 78.4353047,0.384615385 C79.0033023,0.384615385 79.6229361,0.41025641 80.2167517,0.41025641 C80.8363855,0.41025641 81.5334734,0.41025641 82.3596518,0.384615385 C83.1858301,0.384615385 84.0636446,0.358974359 85.0189132,0.333333333 L85.0189132,0.666666667 C85.0189132,0.923076923 85.0447313,1.33333333 85.0705494,1.8974359 C85.0963675,2.46153846 85.1221855,2.92307692 85.1221855,3.23076923 L84.6574602,3.23076923 C84.6316421,2.38461538 84.3734614,1.82051282 83.9087361,1.53846154 C83.4440108,1.23076923 82.4112879,1.1025641 80.7589313,1.1025641 L79.7003903,1.1025641 L79.7003903,5.8974359 C79.8552987,5.8974359 80.0618433,5.8974359 80.2942059,5.8974359 C80.5523867,5.8974359 80.7331132,5.8974359 80.8363855,5.8974359 C81.8432903,5.8974359 82.5145602,5.82051282 82.8501951,5.64102564 C83.1858301,5.46153846 83.3407385,5.15384615 83.3407385,4.71794872 C83.3407385,4.69230769 83.3407385,4.66666667 83.3407385,4.61538462 C83.3407385,4.56410256 83.3407385,4.53846154 83.3407385,4.51282051 L83.8571,4.51282051 C83.8571,4.61538462 83.8571,4.76923077 83.8312819,4.94871795 C83.8312819,5.51282051 83.8054638,5.8974359 83.8054638,6.1025641 C83.8054638,6.35897436 83.8054638,6.82051282 83.8312819,7.48717949 C83.8312819,7.61538462 83.8312819,7.71794872 83.8312819,7.79487179 L83.3149204,7.79487179 C83.3149204,7.30769231 83.1858301,6.97435897 82.9276494,6.79487179 C82.6694686,6.61538462 82.101471,6.53846154 81.2236566,6.53846154 L79.6745722,6.53846154 L79.6745722,10.3589744 C79.6745722,11.1025641 79.7778445,11.5897436 80.0102071,11.7435897 C80.2167517,11.9230769 80.8105674,12 81.7141999,12 C83.160012,12 84.1152807,11.8461538 84.580006,11.5128205 C85.0447313,11.1794872 85.3545482,10.5641026 85.5352747,9.61538462 L86,9.61538462 C85.9741819,9.97435897 85.9225458,10.5128205 85.8450916,11.1794872 C85.7676373,11.8717949 85.6901831,12.3846154 85.6901831,12.7179487 C84.5541879,12.6923077 83.5731012,12.6923077 82.7211048,12.6666667 C81.8691084,12.6666667 81.1978385,12.6666667 80.655659,12.6666667 C79.958571,12.6666667 79.2873011,12.6666667 78.6418493,12.6923077 C77.9963975,12.6666667 77.3509457,12.6923077 76.7313119,12.7179487 Z" id="Path"></path>
                    </g>
                </g>
            </g>
        </g>
    </g>
</svg>