<?xml version="1.0" encoding="UTF-8"?>
<svg width="290px" height="22px" viewBox="0 0 290 22" version="1.1" xmlns="http://www.w3.org/2000/svg" xmlns:xlink="http://www.w3.org/1999/xlink">
    <title>Group</title>
    <g id="Hi-Fi" stroke="none" stroke-width="1" fill="none" fill-rule="evenodd">
        <g id="Branded-(Email-2)" transform="translate(-256, -2897)" fill="#981E32" fill-rule="nonzero">
            <g id="Group-2" transform="translate(1, 2756)">
                <g id="Group" transform="translate(255, 141)">
                    <g id="facebook-brands-solid-(1)" transform="translate(175, 0)">
                        <path d="M22,11.0409724 C22,4.94256028 17.0757812,0 11,0 C4.92421875,0 0,4.94256028 0,11.0409724 C0,16.2164282 3.55351563,20.563811 8.34453125,21.7584787 L8.34453125,14.4136444 L6.07578125,14.4136444 L6.07578125,11.0409724 L8.34453125,11.0409724 L8.34453125,9.58753186 C8.34453125,5.83101353 10.0375,4.08861008 13.715625,4.08861008 C14.4117187,4.08861008 15.6148437,4.22662223 16.1089844,4.36463439 L16.1089844,7.4181533 C15.8511719,7.39227602 15.4,7.3750245 14.8371094,7.3750245 C13.0324219,7.3750245 12.3363281,8.0607724 12.3363281,9.84199177 L12.3363281,11.0409724 L15.9285156,11.0409724 L15.3097656,14.4136444 L12.3320312,14.4136444 L12.3320312,22 C17.7804688,21.3401294 22,16.6865321 22,11.0409724 L22,11.0409724 Z" id="Path"></path>
                    </g>
                    <g id="instagram-brands-solid-(1)" transform="translate(0, 1)">
                        <path d="M9.50211935,4.62863996 C6.80630229,4.62863996 4.63184607,6.80358139 4.63184607,9.5 C4.63184607,12.1964186 6.80630229,14.37136 9.50211935,14.37136 C12.1979364,14.37136 14.3723926,12.1964186 14.3723926,9.5 C14.3723926,6.80358139 12.1979364,4.62863996 9.50211935,4.62863996 Z M9.50211935,12.66702 C7.76001115,12.66702 6.33580591,11.2467366 6.33580591,9.5 C6.33580591,7.75326342 7.75577245,6.33298003 9.50211935,6.33298003 C11.2484663,6.33298003 12.6684328,7.75326342 12.6684328,9.5 C12.6684328,11.2467366 11.2442276,12.66702 9.50211935,12.66702 L9.50211935,12.66702 Z M15.7075851,4.42937632 C15.7075851,5.06108446 15.1989403,5.56560303 14.5716118,5.56560303 C13.9400446,5.56560303 13.4356386,5.05684481 13.4356386,4.42937632 C13.4356386,3.80190784 13.9442833,3.29314962 14.5716118,3.29314962 C15.1989403,3.29314962 15.7075851,3.80190784 15.7075851,4.42937632 Z M18.9332404,5.58256164 C18.8611824,4.06052661 18.5136085,2.7123173 17.3988288,1.60152851 C16.2882878,0.490739708 14.9403793,0.143088252 13.4186838,0.0667745175 C11.8503625,-0.0222581725 7.14963748,-0.0222581725 5.58131623,0.0667745175 C4.06385945,0.1388486 2.71595092,0.486500056 1.60117122,1.59728885 C0.486391523,2.70807765 0.14305633,4.05628696 0.0667596207,5.57832199 C-0.0222532069,7.14699319 -0.0222532069,11.8487672 0.0667596207,13.4174384 C0.138817624,14.9394734 0.486391523,16.2876827 1.60117122,17.3984715 C2.71595092,18.5092603 4.05962075,18.8569117 5.58131623,18.9332255 C7.14963748,19.0222582 11.8503625,19.0222582 13.4186838,18.9332255 C14.9403793,18.8611514 16.2882878,18.5134999 17.3988288,17.3984715 C18.5093698,16.2876827 18.8569437,14.9394734 18.9332404,13.4174384 C19.0222532,11.8487672 19.0222532,7.15123285 18.9332404,5.58256164 Z M16.9071389,15.1005802 C16.5765198,15.9315519 15.9364752,16.5717394 15.1014501,16.9066719 C13.8510318,17.4027111 10.8839375,17.2882405 9.50211935,17.2882405 C8.12030117,17.2882405 5.14896821,17.3984715 3.90278862,16.9066719 C3.07200223,16.575979 2.43195761,15.9357916 2.09709983,15.1005802 C1.60117122,13.8498829 1.71561629,10.8821265 1.71561629,9.5 C1.71561629,8.11787348 1.60540993,5.1458775 2.09709983,3.89941984 C2.42771891,3.06844806 3.06776352,2.42826063 3.90278862,2.09332813 C5.15320692,1.59728885 8.12030117,1.71175946 9.50211935,1.71175946 C10.8839375,1.71175946 13.8552705,1.60152851 15.1014501,2.09332813 C15.9322365,2.42402098 16.5722811,3.06420841 16.9071389,3.89941984 C17.4030675,5.15011715 17.2886224,8.11787348 17.2886224,9.5 C17.2886224,10.8821265 17.4030675,13.8541225 16.9071389,15.1005802 Z" id="Shape"></path>
                    </g>
                    <g id="threads-brands-solid" transform="translate(133, 1)">
                        <path d="M12.962963,9.15225995 C13.0534979,9.18975213 13.1358025,9.23141012 13.2222222,9.26890231 C14.4238683,9.85627994 15.3045267,10.7352635 15.7654321,11.8267028 C16.4115226,13.3472193 16.473251,15.817538 14.5185185,17.7921266 C13.0288066,19.3001458 11.2139918,19.979171 8.65020576,20 L8.63786008,20 C5.74897119,19.979171 3.5308642,18.9960425 2.03703704,17.0756092 C0.70781893,15.3676317 0.024691358,12.9889606 0,10.0104145 L0,9.9979171 L0,9.9895855 C0.0205761317,7.01103937 0.703703704,4.63236826 2.03292181,2.92439075 C3.52674897,1.00395751 5.74897119,0.020828994 8.63786008,0 L8.65020576,0 C11.5432099,0.020828994 13.7901235,0.99979171 15.3292181,2.91189336 C16.0864198,3.85752968 16.6460905,4.99479275 17,6.31535097 L15.3374486,6.76525724 C15.0452675,5.69048115 14.6049383,4.77400542 14.0123457,4.04082483 C12.8106996,2.54946886 11.0082305,1.78296188 8.64197531,1.76629869 C6.2962963,1.78712768 4.52263374,2.54946886 3.36625514,4.03249323 C2.28806584,5.41970423 1.72839506,7.42761925 1.70781893,9.9979171 C1.72839506,12.568215 2.28806584,14.57613 3.36625514,15.9675068 C4.51851852,17.4505311 6.2962963,18.2128723 8.64197531,18.2337013 C10.7572016,18.2170381 12.1563786,17.7088107 13.3209877,16.5298896 C14.6502058,15.1885024 14.6255144,13.5388461 14.2016461,12.5348886 C13.9506173,11.9433451 13.4979424,11.4517809 12.8888889,11.0810248 C12.7366255,12.2016247 12.4032922,13.0931056 11.872428,13.7804624 C11.1687243,14.6886065 10.1687243,15.1801708 8.88065844,15.2509894 C7.90946502,15.3051448 6.97530864,15.0676942 6.25102881,14.5844616 C5.39506173,14.0095813 4.89300412,13.1347636 4.83950617,12.1141429 C4.73662551,10.1020621 6.30864198,8.65652989 8.75720165,8.51489273 C9.6255144,8.46490315 10.4403292,8.50239533 11.1934156,8.6315351 C11.0946502,8.01499688 10.8930041,7.52343262 10.5925926,7.16517392 C10.18107,6.67777546 9.53909465,6.42782754 8.69135802,6.42366174 L8.66255144,6.42366174 C7.97942387,6.42366174 7.05761317,6.61528848 6.4691358,7.51926682 L5.05349794,6.5361383 C5.8436214,5.32389086 7.12345679,4.65736305 8.66666667,4.65736305 L8.69958848,4.65736305 C11.2757202,4.67402624 12.8106996,6.30285357 12.9670782,9.14392835 L12.9588477,9.15225995 L12.962963,9.15225995 Z M6.54320988,12.0183295 C6.59670782,13.063945 7.71193416,13.5513435 8.79012346,13.4888565 C9.8436214,13.4305353 11.037037,13.0139554 11.2386831,10.4394918 C10.6954733,10.3186836 10.0946502,10.2561966 9.4526749,10.2561966 C9.25514403,10.2561966 9.05761317,10.2603624 8.8600823,10.2728598 C7.09465021,10.372839 6.50617284,11.2393251 6.5473251,12.0141637 L6.54320988,12.0183295 L6.54320988,12.0183295 Z" id="Shape"></path>
                    </g>
                    <g id="tiktok-brands-solid" transform="translate(44, 0)">
                        <path d="M19,9.01989582 C17.1322144,9.02394887 15.3103958,8.43318391 13.7919874,7.33108255 L13.7919874,15.0145383 C13.7910974,17.9285498 12.0055153,20.5360374 9.31185205,21.556885 C6.61818883,22.5777326 3.58210089,21.7975671 1.69412082,19.5994018 C-0.19385924,17.4012365 -0.537264665,14.2466755 0.83249551,11.6844145 C2.20225569,9.12215352 4.99753839,7.69025499 7.8460316,8.0916931 L7.8460316,11.9549072 C6.54133983,11.5387571 5.12045274,12.0192606 4.32395899,13.1459716 C3.52746524,14.2726827 3.5357455,15.7904369 4.34448398,16.9081569 C5.15322246,18.0258769 6.57926543,18.4904344 7.8793369,18.0596948 C9.17940837,17.6289551 10.0590832,16.4004673 10.0598611,15.0145383 L10.0598611,0 L13.7919874,0 C13.7898816,0.319827785 13.8168555,0.639172251 13.8725674,0.953986123 L13.8725674,0.953986123 C14.1348788,2.37221152 14.961577,3.61858455 16.1584947,4.40036842 C17.0015127,4.96452738 17.9897098,5.26491377 19,5.26411261 L19,9.01989582 Z" id="Path"></path>
                    </g>
                    <g id="vimeo-brands-solid" transform="translate(222, 1)">
                        <path d="M17.1,0 L0,0 C0.852455357,0 0,0.852455357 0,0 L0,17.1 C0,18.1475446 0.852455357,19 0,19 L17.1,19 C18.1475446,19 19,18.1475446 19,17.1 L19,0 C19,0.852455357 18.1475446,0 17.1,0 Z M15.9888393,6.31071429 C15.9294643,7.64665179 14.9964286,9.47879464 13.1897321,11.7986607 C11.3236607,14.2245536 9.74174107,15.4375 8.45245536,15.4375 C7.65089286,15.4375 6.9765625,14.6995536 6.42098214,13.2194196 C5.33950893,9.2625 4.87723214,6.94263393 3.98660714,6.94263393 C3.88482143,6.94263393 3.52433036,7.15892857 2.909375,7.58727679 L2.26473214,6.75602679 C3.84665179,5.36495536 5.35647321,3.82120536 6.30223214,3.73638393 C7.37098214,3.63459821 8.02834821,4.3640625 8.27433036,5.92901786 C9.15223214,11.4933036 9.54241071,12.3330357 11.1412946,9.81383929 C11.7138393,8.90625 12.0234375,8.21495536 12.0658482,7.73995536 C12.2142857,6.33191964 10.9674107,6.42946429 10.1234375,6.78995536 C10.7977679,4.58035714 12.0870536,3.50736607 13.9912946,3.56674107 C15.4035714,3.60491071 16.0694196,4.52098214 15.9888393,6.31071429 Z" id="Shape"></path>
                    </g>
                    <g id="x-twitter-brands-solid-(1)" transform="translate(88, 2)">
                        <path d="M15.7496741,0 L18.8179053,0 L12.1164711,7.62403846 L20,18 L13.8287701,18 L8.99174272,11.7086538 L3.46371143,18 L0.391134289,18 L7.55758366,9.84375 L0,0 L6.32768362,0 L10.6953498,5.75048077 L15.7496741,0 Z M14.6718818,16.1740385 L16.371143,16.1740385 L5.40199913,1.73076923 L3.57670578,1.73076923 L14.6718818,16.1740385 Z" id="Shape"></path>
                    </g>
                    <g id="youtube-brands-solid-(1)" transform="translate(266, 2)">
                        <path d="M23.4990846,2.66067708 C23.2222629,1.61145833 22.4093739,0.788020833 21.3767851,0.509114583 C19.5049432,0 12,0 12,0 C12,0 4.49505676,0 2.62321494,0.509114583 C1.59062614,0.788020833 0.777737093,1.61145833 0.500915416,2.66067708 C0,4.55989583 0,8.51770833 0,8.51770833 C0,8.51770833 0,12.4755208 0.500915416,14.3747396 C0.777737093,15.4239583 1.59062614,16.2119792 2.62321494,16.4908854 C4.49505676,17 12,17 12,17 C12,17 19.5049432,17 21.3767851,16.4908854 C22.4093739,16.2119792 23.2222629,15.4195312 23.4990846,14.3747396 C24,12.4755208 24,8.51770833 24,8.51770833 C24,8.51770833 24,4.55989583 23.4990846,2.66067708 L23.4990846,2.66067708 Z M9.54815086,12.1125 L9.54815086,4.92291667 L15.8183815,8.51770833 L9.54815086,12.1125 L9.54815086,12.1125 Z" id="Shape"></path>
                    </g>
                </g>
            </g>
        </g>
    </g>
</svg>